<?xml version="1.0" standalone="no"?>
<!DOCTYPE svg PUBLIC "-//W3C//DTD SVG 1.1//EN" "http://www.w3.org/Graphics/SVG/1.1/DTD/svg11.dtd" >
<svg xmlns="http://www.w3.org/2000/svg">
<metadata>Generated by IcoMoon</metadata>
<defs>
<font id="Optometry" horiz-adv-x="1024">
<font-face units-per-em="1024" ascent="960" descent="-64" />
<missing-glyph horiz-adv-x="1024" />
<glyph unicode="&#x20;" horiz-adv-x="512" d="" />
<glyph unicode="&#xe900;" glyph-name="optometry-1" d="M0 960v-180h60v-704h422v-73.63c-6.204-7.048-10-16.264-10-26.37 0-22.056 17.944-40 40-40s40 17.944 40 40c0 10.106-3.796 19.32-10 26.37v73.63h422v704h60v180h-1024zM904 136h-784v642h784v-642zM964 840h-904v60h904v-60zM512 376c-49.626 0-90-40.374-90-90s40.374-90 90-90v60c-16.542 0-30 13.458-30 30s13.458 30 30 30 30-13.458 30-30h60c0 49.626-40.374 90-90 90zM512 718c-77.748 0-141-63.252-141-141s63.252-141 141-141v60c-44.664 0-81 36.336-81 81s36.336 81 81 81c44.664 0 81-36.336 81-81h60c0 77.748-63.252 141-141 141zM752 376c-49.626 0-90-40.374-90-90h60c0 16.542 13.458 30 30 30s30-13.458 30-30-13.458-30-30-30v-60c49.626 0 90 40.374 90 90s-40.374 90-90 90zM302 286c0-16.542-13.458-30-30-30s-30 13.458-30 30 13.458 30 30 30v60c-49.626 0-90-40.374-90-90s40.374-90 90-90 90 40.374 90 90h-60z" />
<glyph unicode="&#xe901;" glyph-name="foroptero-1" d="M472 656c-49.626 0-90-40.374-90-90s40.374-90 90-90 90 40.374 90 90-40.374 90-90 90zM472 536c-16.542 0-30 13.458-30 30s13.458 30 30 30 30-13.458 30-30-13.458-30-30-30zM712 656c-49.626 0-90-40.374-90-90s40.374-90 90-90 90 40.374 90 90-40.374 90-90 90zM712 536c-16.542 0-30 13.458-30 30s13.458 30 30 30 30-13.458 30-30-13.458-30-30-30zM592 436c-49.626 0-90-40.374-90-90s40.374-90 90-90 90 40.374 90 90-40.374 90-90 90zM592 316c-16.542 0-30 13.458-30 30s13.458 30 30 30 30-13.458 30-30-13.458-30-30-30zM832 960h-640c-49.626 0-90-40.374-90-90v-934h60v564h100v-274c0-49.626 40.374-90 90-90h480c49.626 0 90 40.374 90 90v644c0 49.626-40.374 90-90 90zM262 560h-100v310c0 16.542 13.458 30 30 30h70v-340zM862 226c0-16.542-13.458-30-30-30h-480c-16.542 0-30 13.458-30 30v674h510c16.542 0 30-13.458 30-30v-644z" />
<glyph unicode="&#xe902;" glyph-name="contact-lens-3" d="M533.998 938.002l-42.42-42.42 145.59-145.59c-90.276-73.77-143.23-184.226-143.23-301.994 0-117.476 53.052-228.18 143.26-301.962l-145.62-145.62 42.42-42.42 490.002 490.006-490.002 490zM613.922 258.396c-38.5 54.844-59.992 120.852-59.992 189.604 0 68.95 21.466 134.934 59.992 189.734v-379.338zM673.914 193.496v509.034c1.958 1.616 3.95 3.194 5.948 4.768l259.298-259.298-259.32-259.32c-2.002 1.578-3.966 3.196-5.926 4.816zM452.618 280.254c-69.944 100.334-69.944 235.158-0.002 335.492 27.478 39.416 21.914 91.72-9.866 127.484-35.302 39.73-114.292 46.228-154.888-12.35-32.938-47.528-56.932-99.854-71.508-154.922-38.426 49.842-98.702 82.016-166.358 82.016h-49.996v-599.924h59.992v539.6c76.178-5.042 136.968-67.228 139.844-143.972-0.020-1.894 0.138-395.63 0.138-395.63h59.992v152.4c8.448-15.52 17.45-30.86 27.894-45.328 37.598-52.080 109.088-58.578 154.89-12.35 33.674 33.986 37.346 88.066 9.868 127.484zM399.554 194.4c-30.1-25.864-55.488-5.068-62.358 4.858-102.948 148.78-102.948 348.704 0 497.482 6.87 9.924 34.758 28.722 62.356 4.86 14.582-12.61 14.996-35.562 3.852-51.548-84.246-120.854-84.246-283.252 0.002-404.106 11.142-15.986 10.768-38.982-3.852-51.546z" />
<glyph unicode="&#xe903;" glyph-name="testing-glasses-2" d="M964 568v60h60v60h-60v60h-904v-60h-60v-60h60v-60h222v-80h-282v-102.622l191.102-186.746c30.84-31.234 73.64-50.632 120.898-50.632 93.738 0 170 76.262 170 170v250h60v-250c0-93.738 76.262-170 170-170 47.258 0 90.058 19.398 120.9 50.632l0.078-0.080 191.022 186.826v102.622h-282v80h222zM142.468 329.966l-82.468 80.656v17.378h122.538c-22.826-26.824-37.464-60.788-40.070-98.034zM964 428v-17.378l-82.468-80.656c-2.604 37.246-17.244 71.21-40.070 98.034h122.538zM312 208c-60.654 0-110 49.346-110 110s49.346 110 110 110c60.654 0 110-49.346 110-110s-49.346-110-110-110zM422 447.462c-22.426 19.084-49.842 32.438-80 37.832v82.706h80v-120.538zM822 318c0-60.654-49.346-110-110-110s-110 49.346-110 110c0 60.654 49.346 110 110 110s110-49.346 110-110zM602 447.462v120.538h80v-82.706c-30.158-5.394-57.574-18.75-80-37.832zM120 628v60h784v-60h-784z" />
<glyph unicode="&#xe904;" glyph-name="medical-report" d="M704 900v60h-386v-60h-186v-964h760v964h-188zM378 900h266v-60h-266v60zM832-4h-640v844h126v-60h386v60h128v-844zM372 720c-60.654 0-110-49.346-110-110s49.346-110 110-110c60.654 0 110 49.346 110 110s-49.346 110-110 110zM372 560c-27.57 0-50 22.43-50 50s22.43 50 50 50c27.57 0 50-22.43 50-50s-22.43-50-50-50zM652 720c-60.654 0-110-49.346-110-110s49.346-110 110-110c60.654 0 110 49.346 110 110s-49.346 110-110 110zM652 560c-27.57 0-50 22.43-50 50s22.43 50 50 50c27.57 0 50-22.43 50-50s-22.43-50-50-50zM262 380h500v-60h-500v60zM262 260h500v-60h-500v60zM262 140h250v-60h-250v60z" />
<glyph unicode="&#xe905;" glyph-name="laser-surgery" d="M464 678v-157.574l-76.788 76.786-42.424-42.424 76.786-76.788h-421.574v-60h421.574l-76.786-76.788 42.424-42.424 76.788 76.786v-157.574h60v460zM774 698c-137.85 0-250-112.15-250-250s112.15-250 250-250 250 112.15 250 250-112.15 250-250 250zM644 309.572c-36.908 34.682-60 83.906-60 138.428s23.092 103.746 60 138.428v-276.856zM774 258c-24.708 0-48.326 4.746-70 13.364v353.272c21.674 8.62 45.292 13.364 70 13.364 104.766 0 190-85.234 190-190s-85.234-190-190-190z" />
<glyph unicode="&#xe906;" glyph-name="multiestenope" d="M0 919v-460h56.016l-56.016-448.132v-33.868h216.498l60 482h127.93l107.572 107.574 107.574-107.574h404.426v460h-1024zM163.502 37h-99.768l52.75 422h99.55l-52.532-422zM964 519h-319.574l-132.426 132.426-132.426-132.426h-319.574v340h904v-340zM230 799c-60.654 0-110-49.346-110-110s49.346-110 110-110 110 49.346 110 110c0 60.654-49.346 110-110 110zM230 639c-27.57 0-50 22.43-50 50s22.43 50 50 50c27.57 0 50-22.43 50-50s-22.43-50-50-50z" />
<glyph unicode="&#xe907;" glyph-name="eyes" d="M367.458 575.844c-33.778 33.778-78.688 52.38-126.458 52.38s-92.68-18.602-126.458-52.38l-114.542-114.542v-26.606l114.542-114.542c33.778-33.778 78.688-52.38 126.458-52.38s92.68 18.602 126.458 52.378l114.542 114.544v26.604l-114.542 114.544zM325.030 362.582c-46.336-46.334-121.726-46.334-168.062 0l-85.418 85.418 85.42 85.418c46.336 46.334 121.726 46.334 168.062 0l85.418-85.418-85.42-85.418zM241 487.998c-22.056 0-40-17.944-40-40s17.944-40 40-40 40 17.944 40 40c0 22.058-17.944 40-40 40zM909.458 575.844c-33.778 33.778-78.688 52.38-126.458 52.38s-92.68-18.602-126.458-52.38l-114.542-114.542v-26.606l114.542-114.542c33.778-33.778 78.688-52.38 126.458-52.38s92.68 18.602 126.458 52.378l114.542 114.544v26.604l-114.542 114.544zM867.030 362.582c-46.336-46.334-121.726-46.334-168.062 0l-85.418 85.418 85.42 85.418c46.336 46.334 121.726 46.334 168.062 0l85.418-85.418-85.42-85.418zM783 487.998c-22.056 0-40-17.944-40-40s17.944-40 40-40 40 17.944 40 40c0 22.058-17.944 40-40 40z" />
<glyph unicode="&#xe908;" glyph-name="prism" d="M1024 358h-221.084l-270.356 542h-41.12l-180.57-362h-310.87v-60h280.94l-29.928-60h-251.012v-60h221.084l-30.926-62h-190.158v-60h160.228l-100.228-200.932v-39.068h904v39.068l-131.154 262.932h191.154v60zM512 806.8l211.218-423.44-352.298 140.608 141.080 282.832zM344.048 470.092l317.754-126.822-401.822-41.714 84.068 168.536zM886.508 56h-749.016l90.754 181.94 539.568 56.010 118.694-237.95z" />
<glyph unicode="&#xe909;" glyph-name="aperture" d="M512 960c-276.666 0-512-219.558-512-512s238-512 512-512c264.666 0 512 208.666 512 512 0 277.856-219.334 512-512 512zM381.332 880.716c41.388 12.522 85.25 19.284 130.668 19.284 96.456 0 185.936-30.388 259.412-82.066l-390.080-225.212v287.994zM321.334 857.754v-450.554l-249.432 144.010c31.9 136.056 125.442 248.618 249.432 306.544zM60 448c0 13.404 0.622 26.666 1.77 39.778l390.23-225.3-249.182-143.866c-87.848 82.51-142.818 199.642-142.818 329.388zM642.666 15.282c-41.386-12.52-85.248-19.282-130.666-19.282-96.454 0-185.936 30.388-259.412 82.066l390.078 225.212v-287.996zM642.666 372.56l-130.666-75.44-130.666 75.44v150.88l130.666 75.44 130.666-75.44v-150.88zM702.666 38.246v450.554l249.432-144.010c-31.9-136.056-125.442-248.618-249.432-306.544zM572 633.522l249.182 143.866c87.85-82.51 142.818-199.642 142.818-329.388 0-13.406-0.622-26.666-1.77-39.778l-390.23 225.3z" />
<glyph unicode="&#xe90a;" glyph-name="microscope" d="M753.783 68.972c84.834 77.404 133.020 185.94 133.020 301.653 0 78.020-22.074 153.88-63.834 219.378-32.74 51.354-76.326 94.538-127.486 126.696l59.192 59.192-57.358 57.358 42.486 42.486-69.394 69.394-42.486-42.486-57.356 57.358-433.369-433.369 57.356-57.356-42.486-42.486 69.396-69.396 42.486 42.486 57.358-57.358 240.618 240.614c87.202-34.126 144.622-117.402 144.622-212.514 0-66.24-29.16-129.402-78.834-172.56-45.474 24.994-96.832 38.368-149.492 38.368-75.168 0-147.698-27.218-204.226-76.642-55.974-48.938-92.574-116.234-103.056-189.49l-4.906-34.3h624.375l-4.908 34.3c-4.96 34.666-15.776 67.992-31.718 98.674zM321.305 427.493l-99.134 99.138 129.192 129.192c5.256-24.078 17.244-46.202 35.090-64.046 17.844-17.846 39.968-29.834 64.046-35.092l-129.194-129.192zM528.085 634.273l-0.008-0.008c-27.334-27.332-71.802-27.332-99.134 0.002-28.304 28.304-26.564 72.57-0.020 99.116 0.010 0.010 0.040 0.040 0.040 0.040 25.324 25.324 70.646 28.452 99.118-0.018 25.606-25.606 29.012-70.122 0.004-99.132zM570.567 775.888c-18.242 18.242-40.604 29.892-64.114 35.022l64.114 64.114 99.138-99.136-64.048-64.048c-5.254 24.080-17.244 46.204-35.090 64.048zM237.844-3.912c30.662 104.858 128.474 180.258 240.376 180.258s209.714-75.4 240.376-180.258h-480.751zM720.473 120.104c-11.412 14.236-24.12 27.532-38.028 39.688-1.306 1.142-2.628 2.258-3.95 3.374 55.75 53.98 88.136 129 88.136 207.456 0 63.030-19.97 122.91-57.75 173.164-26.8 35.65-61.942 64.744-101.602 84.708l44.446 44.446c108.516-62.112 174.992-175.894 174.992-302.313 0-95.358-38.374-185.010-106.244-250.522z" />
<glyph unicode="&#xe90b;" glyph-name="contact-lens-2" d="M621.814 804.689l3.702 33.314h-227.035l3.702-33.314c26.298-236.679 26.298-476.692 0-713.371l-3.702-33.314h227.035l-3.702 33.314c-26.298 236.679-26.298 476.692 0 713.371zM558.652 118.005h-93.308c22.082 219.157 22.082 440.84 0 659.997h93.308c-22.082-219.157-22.082-440.84 0-659.997zM357.999 647.995l-91.084 91.128v-61.12h-266.915v-60h266.915v-61.114zM357.999 247.997l-91.084 91.128v-61.12h-266.915v-60h266.915v-61.114zM901.872 889.032l27.21-54.722-280.443-139.445 26.716-53.724 280.441 139.445 27.212-54.728 40.984 122.15zM1024 48.012l-40.994 122.132-27.21-54.722-280.441 139.445-26.716-53.724 280.443-139.447-27.214-54.728z" />
<glyph unicode="&#xe90c;" glyph-name="contact-lens-1" d="M574.339 736.412c-6.38 28.706-22.526 54.652-45.464 73.052s-51.768 28.536-81.174 28.536h-30v-779.998h30c29.408 0 58.236 10.134 81.176 28.536 22.938 18.402 39.084 44.344 45.464 73.052 21.006 94.534 31.658 191.57 31.658 288.409s-10.652 193.876-31.66 288.413zM515.767 172.604c-4.822-21.7-19.142-38.982-38.068-47.924v646.641c18.926-8.942 33.248-26.224 38.070-47.926 40.036-180.164 40.036-370.625-0.002-550.791zM357.999 647.993l-91.084 91.128v-61.122h-266.915v-60h266.915v-61.112zM357.999 247.993l-91.084 91.128v-61.122h-266.915v-60h266.915v-61.112zM1024 528.007l-52.088 117.826-22.044-56.998-277.047 107.146-21.644-55.962 277.049-107.146-22.048-57.008zM906.182 420.125l22.044-57-277.049-107.144 21.644-55.962 277.047 107.146 22.046-57.006 52.082 117.848z" />
<glyph unicode="&#xe90d;" glyph-name="glasses" d="M955.81 340.744l-121.65 510.102c-9.694 40.718-45.698 69.154-87.55 69.154h-112.61v-60h112.61c13.952 0 25.952-9.48 29.186-23.062l108.002-452.878c-21.848 7.722-45.338 11.94-69.798 11.94-80.496 0-150.544-45.532-185.78-112.184-27.904 33.102-69.638 54.184-116.22 54.184s-88.316-21.082-116.22-54.184c-35.236 66.652-105.284 112.184-185.78 112.184-23.59 0-46.284-3.912-67.468-11.118l107.674 452.066c3.234 13.572 15.234 23.052 29.184 23.052h112.61v60h-112.61c-41.854 0-77.858-28.438-87.55-69.152l-120.914-507.646c-43.47-38.502-70.926-94.702-70.926-157.202 0-115.794 94.206-210 210-210s210 94.206 210 210c0 50.728 41.272 92 92 92s92-41.272 92-92c0-115.794 94.206-210 210-210s210 94.206 210 210c0 61.18-26.304 116.328-68.19 154.744zM210 36c-82.71 0-150 67.29-150 150s67.29 150 150 150 150-67.29 150-150c0-82.71-67.29-150-150-150zM814 36c-82.71 0-150 67.29-150 150s67.29 150 150 150c82.71 0 150-67.29 150-150s-67.29-150-150-150z" />
<glyph unicode="&#xe90e;" glyph-name="drops" d="M164.096 32.026l-48.050 63.886-48.108-63.968c-7.696-10.302-11.932-23.058-11.932-35.918 0-33.098 26.928-60.026 60.058-60.026 33.098 0 60.026 26.928 60.026 60.026 0 12.86-4.238 25.616-11.994 36zM115.95-4.040l0.096 0.128 0.036-0.048c0.002-0.004 0.004-0.010 0.004-0.016l-0.136-0.064zM967.996 634.726l-325.272 325.274-341.84-341.844-42.426 42.426-42.426-42.426 42.426-42.426-84.852-84.854 98.996-98.996-183.85-183.85 127.282-127.282 183.85 183.85 98.996-98.998 84.854 84.854 42.426-42.426 42.426 42.426-42.426 42.426 341.836 341.846zM498.876 250.458l-98.996 98.996-183.85-183.85-42.426 42.426 183.85 183.85-98.996 98.996 42.428 42.428 240.42-240.422-42.43-42.424zM583.732 335.31l-240.418 240.418 42.426 42.426 240.418-240.418-42.426-42.426zM428.164 660.586l214.56 214.56 240.418-240.418-214.56-214.56-240.418 240.418z" />
<glyph unicode="&#xe90f;" glyph-name="lens-2" d="M512 960c-198 0-390-83.334-390-210 0-0.668 0-604 0-604 0-118 173-210 390-210 239 0 390 104 390 210 0 0 0 603.332 0 604 0 126.666-192 210-390 210zM842 146c0-73-144-150-330-150-190 0-330 78-330 150v190.018c17.224-14.622 117-96.018 330-96.018 209 0 312.776 81.396 330 96.018v-190.018zM842 450c0-75-146-150-330-150-198 0-330 81-330 150v186.018c17.224-14.622 115-96.018 330-96.018 211 0 312.776 81.396 330 96.018v-186.018zM211.856 690.062c54.376 53.752 172.638 89.938 300.144 89.938 127.504 0 245.768-36.186 300.144-89.938-14.736-14.56-104.27-90.062-300.144-90.062-196 0-285.408 75.502-300.144 90.062zM841.7 744.238c-69.67 59.224-192.22 95.762-329.7 95.762s-260.030-36.538-329.7-95.76c-0.188 1.922-0.3 3.842-0.3 5.76 0 79 155 150 330 150 187 0 330-76 330-150 0-1.918-0.112-3.838-0.3-5.762z" />
<glyph unicode="&#xe910;" glyph-name="view" d="M731.318 638.938l-42.43-42.43 65.782-65.782c-33.046-49.962-33.046-115.494 0-165.456l-65.782-65.78-42.004 42.004-320.14-320.138c-219.612 241.17-219.612 612.116 0 853.286l320.136-320.136 42.43 42.43-363.064 363.064-21.214-21.216c-66.248-66.248-117.542-143.502-152.466-229.618-33.724-83.166-50.824-171.034-50.824-261.166s17.1-178 50.824-261.166c34.922-86.12 86.22-163.374 152.466-229.618l21.214-21.216 363.066 363.064 42.004-42.004 190.94 190.938-190.938 190.94zM798.612 486.782l38.782-38.782-38.782-38.782c-11.648 24.456-11.648 53.108 0 77.564z" />
<glyph unicode="&#xe911;" glyph-name="eye" d="M773.628 712.798c-69.882 69.884-162.798 108.37-261.628 108.37s-191.746-38.488-261.628-108.372l-250.372-250.37v-28.852l250.372-250.37c69.882-69.884 162.798-108.372 261.628-108.372s191.746 38.488 261.628 108.372l250.372 250.37v28.852l-250.372 250.372zM731.206 225.628c-58.552-58.55-136.398-90.796-219.204-90.796s-160.654 32.246-219.204 90.796l-222.372 222.372 222.37 222.372c58.552 58.55 136.4 90.796 219.204 90.796s160.652-32.246 219.204-90.798l222.37-222.37-222.368-222.372zM512 690c-133.44 0-242-108.56-242-242s108.56-242 242-242 242 108.56 242 242-108.56 242-242 242zM512 266c-100.356 0-182 81.646-182 182s81.644 182 182 182c100.356 0 182-81.646 182-182s-81.644-182-182-182zM512 508c-33.084 0-60-26.916-60-60s26.916-60 60-60 60 26.916 60 60-26.916 60-60 60z" />
<glyph unicode="&#xe912;" glyph-name="lens-holder" d="M783 689c-58.144 0-111.546-20.698-153.222-55.112l-0.006 0.008c-34.836-23.482-75.564-35.896-117.772-35.896-41.938 0-82.442 12.266-117.136 35.47l-0.052-0.080c-41.764 34.71-95.392 55.61-153.812 55.61-132.888 0-241-108.112-241-241s108.112-241 241-241c58.078 0 111.42 20.652 153.078 54.994 34.872 23.554 75.64 36.006 117.922 36.006 42.284 0 83.052-12.454 117.924-36.006 41.656-34.342 95-54.994 153.076-54.994 132.888 0 241 108.112 241 241s-108.112 241-241 241zM241 267c-99.804 0-181 81.196-181 181s81.196 181 181 181c99.804 0 181-81.196 181-181s-81.196-181-181-181zM561.308 353.508c-16.148 2.968-32.636 4.492-49.308 4.492s-33.16-1.524-49.308-4.492c12.42 29.030 19.308 60.97 19.308 94.492 0 33.52-6.886 65.458-19.306 94.488 16.152-2.97 32.64-4.488 49.306-4.488 16.67 0 33.158 1.522 49.308 4.49-12.422-29.030-19.308-60.97-19.308-94.49s6.888-65.462 19.308-94.492zM783 267c-99.804 0-181 81.196-181 181s81.196 181 181 181c99.804 0 181-81.196 181-181s-81.196-181-181-181zM226.718 400.452v127.548h-36.958v-160h114.48v32.452zM814.55 427.494c4.056 2.254 26.14 15.506 26.14 46.422 0 36.334-31.19 54.084-52.282 54.084h-72.112v-160h36.958v51.604h24.112l30.648-51.604h41.692l-35.156 59.494zM787.056 451.83h-33.804v43.718h32.676c4.206 0 17.126-4.548 17.126-21.632 0-17.666-11.644-22.086-15.998-22.086z" />
<glyph unicode="&#xe913;" glyph-name="filters" d="M959.172 714.226c-31.056 33.106-69.87 56.282-113.182 67.762-11.482 43.312-34.658 82.128-67.762 113.184-92.14 86.438-236.492 86.436-328.63-0.006-32.804-30.776-56.228-69.914-67.746-113.188-43.274-11.52-82.41-34.942-113.184-67.744-43.228-46.074-64.838-105.19-64.836-164.32 0.002-59.114 21.612-118.244 64.826-164.31 8.696-9.272 18.050-17.794 27.994-25.518l-296.652-296.65 127.436-127.436 296.654 296.65c7.724-9.944 16.246-19.3 25.516-27.994 92.142-86.438 236.492-86.434 328.63 0.008 32.804 30.778 56.226 69.914 67.744 113.186 43.274 11.518 82.41 34.942 113.188 67.748 86.442 92.136 86.442 236.488 0.004 328.628zM915.356 426.7c-23.124-24.646-52.512-42.226-84.988-50.838-20.67-5.482-36.918-21.728-42.4-42.4-8.612-32.476-26.192-61.864-50.838-84.986-69.090-64.82-177.332-64.822-246.426-0.008-14.242 13.36-26.124 28.77-35.318 45.798l-19.156 35.484-308.794-308.794-42.478 42.48 308.796 308.796-35.49 19.158c-17.028 9.192-32.436 21.076-45.798 35.318-64.818 69.094-64.814 177.336 0.008 246.426 23.122 24.644 52.508 42.224 84.984 50.836 20.672 5.48 36.92 21.728 42.402 42.4 8.612 32.476 26.192 61.864 50.838 84.986 69.090 64.82 177.334 64.822 246.426 0.006 28.58-26.812 47.29-61.318 54.11-99.792l3.664-20.67 20.67-3.664c38.472-6.82 72.98-25.532 99.79-54.11 64.818-69.092 64.818-177.334-0.002-246.426zM783.9 640.026c-49.706 0-90-40.294-90-90s40.294-90 90-90c49.706 0 90 40.294 90 90s-40.294 90-90 90zM783.9 520.026c-16.568 0-30 13.432-30 30s13.432 30 30 30 30-13.432 30-30-13.432-30-30-30zM443.98 640.026c-49.706 0-90-40.294-90-90s40.294-90 90-90c49.706 0 90 40.294 90 90s-40.294 90-90 90zM443.98 520.026c-16.568 0-30 13.432-30 30s13.432 30 30 30 30-13.432 30-30-13.432-30-30-30zM613.984 469.89c-49.706 0-90-40.294-90-90s40.294-90 90-90c49.706 0 90 40.294 90 90s-40.294 90-90 90zM613.984 349.89c-16.568 0-30 13.43-30 30 0 16.568 13.432 30 30 30s30-13.432 30-30-13.432-30-30-30zM613.984 809.83c-49.706 0-90-40.294-90-90s40.294-90 90-90c49.706 0 90 40.294 90 90s-40.294 90-90 90zM613.984 689.83c-16.568 0-30 13.432-30 30s13.432 30 30 30 30-13.432 30-30c0-16.568-13.432-30-30-30z" />
<glyph unicode="&#xe914;" glyph-name="divergence-cards" d="M122 960v-1024h780v1024h-780zM842-4h-660v904h660v-904zM632 298c-49.626 0-90-40.374-90-90s40.374-90 90-90 90 40.374 90 90-40.374 90-90 90zM632 178c-16.542 0-30 13.458-30 30s13.458 30 30 30 30-13.458 30-30-13.458-30-30-30zM672 538c-49.626 0-90-40.374-90-90s40.374-90 90-90 90 40.374 90 90-40.374 90-90 90zM672 418c-16.542 0-30 13.458-30 30s13.458 30 30 30 30-13.458 30-30-13.458-30-30-30zM712 778c-49.626 0-90-40.374-90-90s40.374-90 90-90 90 40.374 90 90-40.374 90-90 90zM712 658c-16.542 0-30 13.458-30 30s13.458 30 30 30 30-13.458 30-30-13.458-30-30-30zM390 298c-49.626 0-90-40.374-90-90s40.374-90 90-90 90 40.374 90 90-40.374 90-90 90zM390 178c-16.542 0-30 13.458-30 30s13.458 30 30 30 30-13.458 30-30-13.458-30-30-30zM350 538c-49.626 0-90-40.374-90-90s40.374-90 90-90 90 40.374 90 90-40.374 90-90 90zM350 418c-16.542 0-30 13.458-30 30s13.458 30 30 30 30-13.458 30-30-13.458-30-30-30zM312 778c-49.626 0-90-40.374-90-90s40.374-90 90-90 90 40.374 90 90-40.374 90-90 90zM312 658c-16.542 0-30 13.458-30 30s13.458 30 30 30 30-13.458 30-30-13.458-30-30-30z" />
<glyph unicode="&#xe915;" glyph-name="brock-cord" d="M964 320.84v464.32c34.918 12.384 60 45.73 60 84.84 0 49.626-40.374 90-90 90s-90-40.374-90-90c0-39.11 25.082-72.456 60-84.84v-464.32c-34.918-12.384-60-45.73-60-84.84 0-38.496 24.3-71.408 58.362-84.244-11.878-87.828-87.332-155.756-178.362-155.756h-2c-99.252 0-180 80.748-180 180v187.16c34.918 12.384 60 45.73 60 84.84s-25.082 72.456-60 84.84v187.16c0 132.336-107.664 240-240 240h-2c-123.796 0-225.99-94.216-238.668-214.708-35.608-12.002-61.332-45.688-61.332-85.292 0-39.11 25.082-72.456 60-84.84v-464.32c-34.918-12.384-60-45.73-60-84.84 0-49.626 40.374-90 90-90s90 40.374 90 90c0 39.11-25.082 72.456-60 84.84v464.32c34.918 12.384 60 45.73 60 84.84 0 38.496-24.3 71.408-58.362 84.244 11.878 87.828 87.332 155.756 178.362 155.756h2c99.252 0 180-80.748 180-180v-187.16c-34.918-12.384-60-45.73-60-84.84s25.082-72.456 60-84.84v-187.16c0-132.336 107.664-240 240-240h2c123.796 0 225.99 94.216 238.668 214.708 35.608 12.002 61.332 45.688 61.332 85.292 0 39.11-25.082 72.456-60 84.84zM90-4c-16.542 0-30 13.458-30 30s13.458 30 30 30 30-13.458 30-30-13.458-30-30-30zM90 630c-16.542 0-30 13.458-30 30s13.458 30 30 30 30-13.458 30-30-13.458-30-30-30zM512 418c-16.542 0-30 13.458-30 30s13.458 30 30 30 30-13.458 30-30-13.458-30-30-30zM934 900c16.542 0 30-13.458 30-30s-13.458-30-30-30-30 13.458-30 30 13.458 30 30 30zM934 206c-16.542 0-30 13.458-30 30s13.458 30 30 30 30-13.458 30-30-13.458-30-30-30z" />
<glyph unicode="&#xe916;" glyph-name="optometrist" d="M721.54 514.758c38.992 47.084 62.46 107.472 62.46 173.242 0 149.982-122.020 272-272 272s-272-122.018-272-272c0-65.77 23.468-126.158 62.462-173.242-170.582-23.268-302.462-169.89-302.462-346.758v-30.93l9.964-8.94c131.772-118.236 300.172-185.728 476.642-191.654l0.122-0.476h50.542l0.122 0.476c176.47 5.926 344.868 73.418 476.642 191.654l9.964 8.94v30.93c0.002 176.868-131.878 323.49-302.458 346.758zM512 900c46.794 0 90.088-15.25 125.194-41.028-20.834-96.282-107.116-166.972-207.194-166.972-45.16 0-89.020 14.428-125.196 40.912 20.66 95.396 105.706 167.088 207.196 167.088zM301.324 664.37c39.29-21.092 83.472-32.37 128.676-32.37 66.262 0 130.104 24.104 179.764 67.876 20.812 18.344 38.512 39.586 52.684 62.882 14.246-32.702 34.906-62.582 61.144-87.738-6.732-110.874-99.056-199.020-211.592-199.020-108.91 0-198.886 82.556-210.676 188.37zM562 366c0-27.57-22.43-50-50-50s-50 22.43-50 50c0 27.57 22.43 50 50 50 27.572 0 50-22.43 50-50zM60 164.016v3.984c0 100.972 51.884 190.042 130.38 241.992l44.032-132.096 43.384 0.058-12.264-93.418 53.73-161.196c-94.86 27.476-183.344 75.128-259.262 140.676zM387.896 7.182l-61.078 183.232 19.384 147.632-68.564-0.092-33.364 100.090c32.774 12.876 68.44 19.956 105.726 19.956h2.728l118.278-460.752c-28 1.652-55.75 4.96-83.11 9.934zM512 78.864l-48.354 188.362c14.604-7.178 31.012-11.226 48.354-11.226s33.75 4.048 48.354 11.226l-48.354-188.362zM636.104 7.182c-27.36-4.972-55.11-8.282-83.11-9.934l118.278 460.752h2.728c37.288 0 72.952-7.080 105.726-19.956l-33.364-100.090-68.564 0.092 19.384-147.632-61.078-183.232zM964 164.016c-75.918-65.548-164.402-113.202-259.264-140.676l53.73 161.196-12.264 93.418 43.384-0.058 44.032 132.096c78.5-51.95 130.382-141.020 130.382-241.992v-3.984z" />
<glyph unicode="&#xe917;" glyph-name="tears-1" d="M521.018 938.958v-981.918h502.982v981.918h-502.982zM963.882 17.158h-382.746v861.684h382.748v-861.684zM428.838 658.41c-51.728 0-95.134 40.416-98.816 92.012l-13.468 188.536h-174.21l-13.468-188.536c-3.684-51.594-47.090-92.012-98.818-92.012h-30.058v-701.37h458.896v701.37h-30.058zM398.778 17.158h-338.66v360.704h338.662v-360.704zM398.778 437.98h-338.66v163.154c29.174 5.58 56.308 19.252 78.422 39.842 29.562 27.526 47.426 64.872 50.304 105.162l9.478 132.704h62.254l9.478-132.702c2.878-40.288 20.742-77.636 50.304-105.162 22.114-20.59 49.246-34.26 78.422-39.842v-163.156zM641.252 478.058v-400.782h262.512v400.782h-262.512zM843.648 137.394h-142.278v280.548h142.278v-280.548zM641.252 818.724h262.512v-60.118h-262.512v60.118zM641.252 698.49h142.278v-60.118h-142.278v60.118z" />
<glyph unicode="&#xe918;" glyph-name="tears" d="M698 756v104h-30c-36.392 0-66 29.608-66 66v34h-180v-34c0-36.392-29.608-66-66-66h-30v-104h-124v-820h620v820h-124zM386 803.608c46.75 11.46 83.34 49.078 93.302 96.392h65.394c9.964-47.314 46.554-84.93 93.304-96.392v-47.608h-252v47.608zM762-4h-500v700h500v-700zM322 596v-500h380v500h-380zM642 156h-260v380h260v-380z" />
<glyph unicode="&#xe919;" glyph-name="ophthalmoscope" d="M640.29 939.984l-7.064 20.016h-242.452l-7.064-20.016c-40.964-116.064-40.964-243.904 0-359.968l7.064-20.016h11.346v-624h220v624h11.106l7.064 20.016c40.964 116.064 40.964 243.904 0 359.968zM562.12-4h-100v60h100v-60zM562.12 116h-100v444h100v-444zM590.278 620h-156.56c-27.656 91.020-27.656 188.98 0.002 280h156.558c27.658-91.020 27.658-188.98 0-280zM512 860c-22.056 0-40-17.944-40-40s17.944-40 40-40c22.056 0 40 17.944 40 40s-17.944 40-40 40zM512 740c-22.056 0-40-17.944-40-40s17.944-40 40-40c22.056 0 40 17.944 40 40s-17.944 40-40 40z" />
<glyph unicode="&#xe91a;" glyph-name="testing-glasses-1" d="M921.41 516l-89.248 374.846c-9.694 40.716-45.698 69.154-87.554 69.154h-72.608v-60h72.608c13.952 0 25.954-9.478 29.184-23.052l85.94-360.948h-295.732v-90.85c-15.552 8.19-33.238 12.85-52 12.85s-36.448-4.66-52-12.85v90.85h-295.732l85.94 360.95c3.23 13.572 15.232 23.050 29.184 23.050h72.608v60h-72.608c-41.856 0-77.86-28.438-87.552-69.154l-89.25-374.846h-102.59v-320h60v-90c0-93.738 76.262-170 170-170s170 76.262 170 170v90h60v130c0 28.672 23.328 52 52 52s52-23.328 52-52v-130h60v-90c0-93.738 76.262-170 170-170s170 76.262 170 170v90h60v320h-102.59zM230-4c-60.654 0-110 49.346-110 110s49.346 110 110 110c60.654 0 110-49.346 110-110s-49.346-110-110-110zM120.464 235.866c5.010 56.046 52.208 100.134 109.536 100.134s104.526-44.088 109.536-100.134c-29.61 25.012-67.832 40.134-109.536 40.134s-79.926-15.122-109.536-40.134zM400 256h-2.704c-14.216 79.472-83.796 140-167.296 140s-153.078-60.528-167.296-140h-2.704v200h340v-200zM794-4c-60.654 0-110 49.346-110 110s49.346 110 110 110c60.654 0 110-49.346 110-110s-49.346-110-110-110zM684.464 235.866c5.010 56.046 52.208 100.134 109.536 100.134s104.526-44.088 109.536-100.134c-29.61 25.012-67.832 40.134-109.536 40.134s-79.926-15.122-109.536-40.134zM964 256h-2.704c-14.216 79.472-83.796 140-167.296 140s-153.078-60.528-167.296-140h-2.704v200h340v-200z" />
<glyph unicode="&#xe91b;" glyph-name="optometry" d="M142 960v-1024h740v1024h-740zM822-4h-620v904h620v-904zM452 780v60h-150v-300h150v60h-90v60h90v60h-90v60zM400 376v60h-110v-180h110v60h-50v60zM570 376v60h-110v-180h110v60h-50v60zM740 376v60h-110v-180h110v60h-50v60zM722 780v60h-150v-300h150v60h-90v60h90v60h-90v60zM542 156h60v-60h-60v60zM662 156h60v-60h-60v60zM422 156h60v-60h-60v60zM302 156h60v-60h-60v60z" />
<glyph unicode="&#xe91c;" glyph-name="skiascope" d="M182 838c-22.056 0-40-17.944-40-40s17.944-40 40-40 40 17.944 40 40-17.944 40-40 40zM322 838c-22.056 0-40-17.944-40-40s17.944-40 40-40 40 17.944 40 40-17.944 40-40 40zM182 698c-22.056 0-40-17.944-40-40s17.944-40 40-40 40 17.944 40 40-17.944 40-40 40zM322 698c-22.056 0-40-17.944-40-40s17.944-40 40-40 40 17.944 40 40-17.944 40-40 40zM182 558c-22.056 0-40-17.944-40-40s17.944-40 40-40 40 17.944 40 40-17.944 40-40 40zM322 558c-22.056 0-40-17.944-40-40s17.944-40 40-40 40 17.944 40 40-17.944 40-40 40zM182 418c-22.056 0-40-17.944-40-40s17.944-40 40-40 40 17.944 40 40-17.944 40-40 40zM322 418c-22.056 0-40-17.944-40-40s17.944-40 40-40 40 17.944 40 40-17.944 40-40 40zM702 838c-22.056 0-40-17.944-40-40s17.944-40 40-40 40 17.944 40 40-17.944 40-40 40zM842 838c-22.056 0-40-17.944-40-40s17.944-40 40-40 40 17.944 40 40-17.944 40-40 40zM702 698c-22.056 0-40-17.944-40-40s17.944-40 40-40 40 17.944 40 40-17.944 40-40 40zM842 698c-22.056 0-40-17.944-40-40s17.944-40 40-40 40 17.944 40 40-17.944 40-40 40zM702 558c-22.056 0-40-17.944-40-40s17.944-40 40-40 40 17.944 40 40-17.944 40-40 40zM842 558c-22.056 0-40-17.944-40-40s17.944-40 40-40 40 17.944 40 40-17.944 40-40 40zM702 418c-22.056 0-40-17.944-40-40s17.944-40 40-40 40 17.944 40 40-17.944 40-40 40zM842 418c-22.056 0-40-17.944-40-40s17.944-40 40-40 40 17.944 40 40-17.944 40-40 40zM22 960v-742h140v-282h180v282h140v742h-460zM422 278h-140v-282h-60v282h-140v622h340v-622zM542 960v-742h140v-282h180v282h140v742h-460zM942 278h-140v-282h-60v282h-140v622h340v-622z" />
<glyph unicode="&#xe91d;" glyph-name="testing-glasses" d="M1024 456h-86.304l-103.536 434.846c-9.696 40.716-45.698 69.154-87.55 69.154h-72.61v-60h72.61c13.952 0 25.952-9.48 29.184-23.052l100.226-420.948h-726.038l100.226 420.95c3.23 13.572 15.232 23.050 29.184 23.050h72.608v60h-72.608c-41.856 0-77.86-28.438-87.552-69.154l-103.536-434.846h-88.304v-180h162.538c-19.084-22.426-32.438-49.842-37.834-80h-62.704v-60h62.704c12.474-69.726 67.57-124.822 137.296-137.296v-62.704h60v62.704c48.386 8.656 89.74 37.816 114.69 78.178 16.078-13.046 36.544-20.882 58.812-20.882h32.992c22.27 0 42.736 7.838 58.812 20.882 24.954-40.362 66.308-69.522 114.694-78.178v-62.704h60v62.704c69.726 12.474 124.822 67.57 137.296 137.296h62.704v60h-62.704c-5.396 30.158-18.75 57.574-37.834 80h162.538v180zM512 396c16.542 0 30-13.458 30-30s-13.458-30-30-30-30 13.458-30 30 13.458 30 30 30zM292 56c-60.654 0-110 49.346-110 110s49.346 110 110 110c60.654 0 110-49.346 110-110s-49.346-110-110-110zM60 336v60h367.16c-3.33-9.39-5.16-19.484-5.16-30s1.83-20.61 5.16-30h-367.16zM442.082 245.736c-5.784 10.842-12.716 20.976-20.62 30.264h37.482l-16.862-30.264zM528.496 116h-32.992c-18.474 0-33.504 15.030-33.504 33.504 0 5.694 1.464 11.332 4.236 16.306l45.764 82.14 45.764-82.142c2.772-4.974 4.236-10.612 4.236-16.306 0-18.472-15.030-33.502-33.504-33.502zM581.918 245.736l-16.862 30.264h37.482c-7.904-9.288-14.836-19.422-20.62-30.264zM732 56c-60.654 0-110 49.346-110 110s49.346 110 110 110c60.654 0 110-49.346 110-110s-49.346-110-110-110zM964 336h-367.16c3.33 9.39 5.16 19.484 5.16 30s-1.83 20.61-5.16 30h367.16v-60z" />
<glyph unicode="&#xe91e;" glyph-name="lens-1" d="M632 336c-23.034 0-44.064-8.708-60-22.99-15.936 14.282-36.966 22.99-60 22.99s-44.064-8.708-60-22.99c-15.936 14.282-36.966 22.99-60 22.99-49.626 0-90-40.374-90-90s40.374-90 90-90 90 40.374 90 90c0 16.542 13.458 30 30 30s30-13.458 30-30c0-49.626 40.374-90 90-90s90 40.374 90 90-40.374 90-90 90zM392 216c-16.542 0-30 13.458-30 30s13.458 30 30 30 30-13.458 30-30-13.458-30-30-30zM632 216c-16.542 0-30 13.458-30 30s13.458 30 30 30 30-13.458 30-30-13.458-30-30-30zM512 476c-49.626 0-90-40.374-90-90h60c0 16.542 13.458 30 30 30s30-13.458 30-30h60c0 49.626-40.374 90-90 90zM732 476c-49.626 0-90-40.374-90-90h60c0 16.542 13.458 30 30 30s30-13.458 30-30h60c0 49.626-40.374 90-90 90zM292 476c-49.626 0-90-40.374-90-90h60c0 16.542 13.458 30 30 30s30-13.458 30-30h60c0 49.626-40.374 90-90 90zM884 550.466v409.534h-744v-409.534l-140-460v-154.466h1024v154.464l-140 460.002zM200 900h624v-324h-624v324zM192.23 516h639.542l121.738-400h-883.020l121.74 400zM964-4h-904v60h904v-60z" />
<glyph unicode="&#xe91f;" glyph-name="lens" d="M512 922.51c-266 0-512-109.512-512-271 0-0.894 0-407.022 0-407.022 0-166.488 252-271 512-271 270 0 512 110.512 512 271 0-0.002 0 406.126 0 407.022 0 157.156-234 271-512 271zM964 244.49c0-102.286-185.414-211.002-452-211.002-265 0-452 108.714-452 211v277.522c25.19-25 160-141.5 452-141.5 297 0 426.81 116.5 452 141.5v-277.52zM96.12 571.274c31.368 33.964 81.822 64.434 144.868 87.112 79.044 28.432 172.758 43.458 271.012 43.458 98.25 0 191.964-15.026 271.006-43.456 63.050-22.678 113.506-53.148 144.876-87.114-21.112-23.020-143.882-130.762-415.882-130.762-277 0-394.77 107.744-415.88 130.762zM959.84 624.336c-37.784 36.068-176.84 137.506-447.84 137.506-275 0-410.056-101.44-447.84-137.508-2.732 9.032-4.16 18.114-4.16 27.176 0 81.488 148 211 452 211 303 0 452-129.512 452-211 0-9.062-1.428-18.142-4.16-27.174zM342.636 300c-33.302 0-57.962-24.834-57.962-54.876 0-34.124 28.826-51.79 54.876-51.79 18.012 0 25.71 8.668 28.65 12.782-0.296-11.316-4.326-35.482-28.65-35.482-15.3 0-25.934 10.282-29.754 14.986l-19.834-22.48c6.316-7.492 22.536-23.14 49.146-23.14 28.64 0 61.706 19.75 61.706 85.73 0.002 56.020-30.314 74.27-58.178 74.27zM342.636 221.322c-11.218 0-24.242 8.594-24.242 23.802 0 13.126 11.106 25.124 24.242 25.124 13.864 0 24.244-12.874 24.244-25.124-0.002-10.958-9.214-23.802-24.244-23.802zM498.888 298.678c-37.388 0-69.2-35.052-69.2-79.338 0-36.588 25.312-79.338 69.2-79.338 43.112 0 69.424 41.5 69.424 79.338 0 42.41-29.186 79.338-69.424 79.338zM498.888 172.176c-19.264 0-32.616 20.698-32.616 47.162 0 23.912 11.852 47.162 32.616 47.162 19.612 0 32.838-21 32.838-47.162 0-26.214-13.1-47.162-32.838-47.162zM661.308 298.678h-58.402v-156.474h58.402c47.526 0 78.018 30.964 78.018 78.458 0 37.338-21.326 78.016-78.018 78.016zM661.308 173.94h-22.258v93.002h22.258c18.942 0 41.212-10.692 41.212-46.282 0-30.494-18.854-46.72-41.212-46.72z" />
<glyph unicode="&#xe920;" glyph-name="contact-lens" d="M633.236 838.764c-215.466 0-390.764-175.296-390.764-390.764s175.296-390.764 390.764-390.764 390.764 175.298 390.764 390.764-175.296 390.764-390.764 390.764zM320.606 340.324c-11.662 33.77-18.016 69.992-18.016 107.676s6.352 73.906 18.016 107.676c16.986-33.156 26.070-70.124 26.070-107.676s-9.084-74.52-26.070-107.676zM351.29 275.458c35.906 50.134 55.504 110.712 55.504 172.542s-19.598 122.41-55.504 172.542c12.61 20.532 27.402 39.586 44.046 56.842 53.454-64.564 82.598-144.936 82.598-229.384s-29.142-164.82-82.598-229.384c-16.644 17.256-31.436 36.308-44.046 56.842zM633.236 117.354c-71.724 0-138.18 22.966-192.422 61.916 62.918 75.5 97.236 169.706 97.236 268.728s-34.318 193.228-97.236 268.728c54.242 38.95 120.698 61.916 192.422 61.916 182.318 0 330.646-148.328 330.646-330.646s-148.328-330.642-330.646-330.642zM182.356 448c0 110.614 27.072 220.45 78.29 317.636 11.030 20.928 6.1 46.138-11.988 61.304-18.094 15.17-43.784 15.624-62.468 1.112-56.658-44-103.536-101.070-135.556-165.034-33.598-67.116-50.634-139.456-50.634-215.018s17.036-147.902 50.634-215.016c32.020-63.966 78.898-121.034 135.556-165.034 9.098-7.066 19.852-10.582 30.586-10.582 11.314 0 22.598 3.91 31.882 11.694 18.088 15.166 23.016 40.372 11.986 61.304-51.214 97.184-78.288 207.020-78.288 317.634zM60.118 448c0 113.992 45.022 220.622 125.004 299.374-41.252-93.774-62.884-196.276-62.884-299.374s21.63-205.6 62.882-299.374c-79.98 78.752-125.002 185.382-125.002 299.374z" />
<glyph unicode="&#xe921;" glyph-name="slit-lamp" d="M938.042 550c-10.078 19.012-30.068 32-53.042 32h-145.614l-76.386-54.562v-90.876l76.386-54.562h1.614v-194c0-16.542-13.458-30-30-30h-88v163.63c6.204 7.048 10 16.264 10 26.37s-3.796 19.32-10 26.37v205.63h60v100h20v170c0 60.654-49.346 110-110 110s-110-49.346-110-110v-170h20v-100h60v-205.63c-6.204-7.048-10-16.264-10-26.37s3.796-19.32 10-26.37v-39.204l-64.426-64.426h-135.574v50h112v89.574l20 20v80.426c0 84.546-55.514 156.36-132 180.936v21.668c0 9.676-2.376 19.32-6.876 27.89l-35.124 66.902v92.604h-60v-92.604c0-9.676 2.376-19.32 6.876-27.89l35.126-66.902v-12.63c-103.846-1.078-188-85.878-188-189.974 0-54.182 22.8-103.136 59.306-137.782-88.344-24.8-153.308-106.062-153.308-202.218v-182h342v102h40v-102h220v162h88c49.626 0 90 40.374 90 90v194h84c33.084 0 60 26.916 60 60v48h58v60h-64.958zM363 574.294c42.642-21.354 72-65.448 72-116.294v-55.574l-20-20v-54.426h-52v246.294zM303-4h-222v122c0 82.71 67.29 150 150 150h72v-272zM303 328.052c-70.76 1.078-128 58.938-128 129.95s57.24 128.87 128 129.948v-259.898zM563-4h-100v42h100v-42zM563 98h-200v60h200v-60zM543 740v110c0 27.57 22.43 50 50 50s50-22.43 50-50v-110h-100zM563 640v40h60v-40h-60zM885 442h-126.386l-35.614 25.438v29.124l35.614 25.438h126.386v-80z" />
<glyph unicode="&#xe922;" glyph-name="retinoscope" d="M649.878 780.75l-43.196 179.25h-233.628v-60h60v-374.028c-12.136-9.132-20-23.65-20-39.972v-550h219.998v550c0 16.322-7.864 30.842-20 39.972v208.028c11.682 0 22.526 5.262 29.754 14.438 7.23 9.176 9.806 20.952 7.072 32.312zM573.054-4h-99.998v480h99.998v-480zM493.056 536v60h59.998v-60h-59.998zM570.628 776.428c-11.334-11.332-17.574-26.4-17.574-42.426v-78h-60v123.998h30v60h-30v60h66.37l27.032-112.182c-5.788-2.866-11.128-6.69-15.828-11.39z" />
<glyph unicode="&#xe923;" glyph-name="foroptero" d="M342 280c-22.056 0-40-17.944-40-40s17.944-40 40-40 40 17.944 40 40-17.944 40-40 40zM332 478c-23.034 0-44.064-8.708-60-22.99-15.936 14.282-36.966 22.99-60 22.99-49.626 0-90-40.374-90-90s40.374-90 90-90c23.034 0 44.064 8.708 60 22.99 15.936-14.284 36.966-22.99 60-22.99 49.626 0 90 40.374 90 90s-40.374 90-90 90zM212 358c-16.542 0-30 13.458-30 30s13.458 30 30 30 30-13.458 30-30-13.458-30-30-30zM332 358c-16.542 0-30 13.458-30 30s13.458 30 30 30 30-13.458 30-30-13.458-30-30-30zM1024 387c0 69.792-26.524 133.5-70.016 181.59 18.88 20.104 30.016 47.002 30.016 75.41 0 60.654-49.346 110-110 110-56.004 0-102.334-42.080-109.114-96.276-3.942 0.172-7.902 0.276-11.886 0.276-55.86 0-107.822-16.992-151-46.074v108.074h160v180h-340v-288.074c-43.178 29.082-95.14 46.074-151 46.074-3.984 0-7.944-0.104-11.886-0.276-6.78 54.196-53.11 96.276-109.114 96.276-60.654 0-110-49.346-110-110 0-28.408 11.136-55.306 30.016-75.41-43.492-48.090-70.016-111.798-70.016-181.59 0-109.866 65.722-204.674 159.912-247.174-11.246-15.024-17.912-33.66-17.912-53.826 0-49.626 40.374-90 90-90 123.376 0 230.136 91.15 280 222.726 49.864-131.576 156.624-222.726 280-222.726 49.626 0 90 40.374 90 90 0 20.166-6.666 38.802-17.912 53.826 94.19 42.5 159.912 137.308 159.912 247.174zM874 694c27.57 0 50-22.43 50-50 0-13.538-5.574-26.314-14.926-35.578-25.42 17.97-54.058 31.668-84.862 40.066 2.278 25.474 23.73 45.512 49.788 45.512zM482 840h220v-60h-160v-127.16c-9.39 3.33-19.484 5.16-30 5.16s-20.61-1.83-30-5.16v187.16zM150 694c26.058 0 47.51-20.038 49.788-45.514-30.804-8.398-59.442-22.094-84.862-40.066-9.352 9.266-14.926 22.042-14.926 35.58 0 27.57 22.43 50 50 50zM482 386c0-89.028-27.010-172.762-76.052-235.78-47.286-60.758-109.062-94.22-173.948-94.22-16.542 0-30 13.458-30 30s13.458 30 30 30h39v60c-116.346 0-211 94.654-211 211s94.654 211 211 211c116.346 0 211-94.654 211-211v-1zM512 538c-16.542 0-30 13.458-30 30s13.458 30 30 30 30-13.458 30-30-13.458-30-30-30zM753 176v-60h39c16.542 0 30-13.458 30-30s-13.458-30-30-30c-64.886 0-126.662 33.462-173.948 94.22-49.042 63.018-76.052 146.752-76.052 235.78v1c0 116.346 94.654 211 211 211s211-94.654 211-211c0-116.346-94.654-211-211-211zM682 280c-22.056 0-40-17.944-40-40s17.944-40 40-40 40 17.944 40 40-17.944 40-40 40zM812 478c-23.034 0-44.064-8.708-60-22.99-15.936 14.282-36.966 22.99-60 22.99-49.626 0-90-40.374-90-90s40.374-90 90-90c23.034 0 44.064 8.708 60 22.99 15.936-14.284 36.966-22.99 60-22.99 49.626 0 90 40.374 90 90s-40.374 90-90 90zM692 358c-16.542 0-30 13.458-30 30s13.458 30 30 30 30-13.458 30-30-13.458-30-30-30zM812 358c-16.542 0-30 13.458-30 30s13.458 30 30 30 30-13.458 30-30-13.458-30-30-30z" />
<glyph unicode="&#xe924;" glyph-name="lio" d="M512-4c-104.766 0-190 85.234-190 190v99.71c45.888-53.646 114.036-87.71 190-87.71 128.344 0 234.39 97.22 248.41 221.882 7.158 7.23 11.59 17.164 11.59 28.118 0 10.106-3.796 19.32-10 26.368v235.632c0 137.85-112.15 250-250 250s-250-112.15-250-250h60c0 104.766 85.234 190 190 190s190-85.234 190-190v-99.71c-45.888 53.646-114.036 87.71-190 87.71-128.344 0-234.39-97.22-248.41-221.882-7.158-7.23-11.59-17.164-11.59-28.118 0-10.106 3.796-19.32 10-26.368v-235.632c0-137.85 112.15-250 250-250s250 112.15 250 250h-60c0-104.766-85.234-190-190-190zM323.572 472.47c12.042 93.25 91.952 165.53 188.428 165.53s176.386-72.28 188.428-165.53c-5.262-6.772-8.428-15.25-8.428-24.47s3.166-17.698 8.428-24.47c-12.042-93.25-91.952-165.53-188.428-165.53s-176.386 72.28-188.428 165.53c5.262 6.772 8.428 15.25 8.428 24.47s-3.166 17.698-8.428 24.47z" />
</font>
</defs>
</svg>
